<svg width="168" height="23" viewBox="0 0 168 23" fill="none" xmlns="http://www.w3.org/2000/svg">
<path d="M10.3719 16.1602V18H1.84062V16.1602H10.3719ZM2.28593 0.9375V18H0.0242157V0.9375H2.28593ZM19.5158 15.0703V5.32031H21.6955V18H19.6212L19.5158 15.0703ZM19.9259 12.3984L20.8283 12.375C20.8283 13.2188 20.7384 14 20.5587 14.7188C20.3869 15.4297 20.1056 16.0469 19.715 16.5703C19.3244 17.0938 18.8127 17.5039 18.1798 17.8008C17.547 18.0898 16.7775 18.2344 15.8712 18.2344C15.2541 18.2344 14.6877 18.1445 14.172 17.9648C13.6642 17.7852 13.2267 17.5078 12.8595 17.1328C12.4923 16.7578 12.2072 16.2695 12.0041 15.668C11.8087 15.0664 11.7111 14.3438 11.7111 13.5V5.32031H13.8791V13.5234C13.8791 14.0938 13.9416 14.5664 14.0666 14.9414C14.1994 15.3086 14.3752 15.6016 14.5939 15.8203C14.8205 16.0312 15.0705 16.1797 15.3439 16.2656C15.6252 16.3516 15.9142 16.3945 16.2111 16.3945C17.133 16.3945 17.8634 16.2188 18.4025 15.8672C18.9416 15.5078 19.3283 15.0273 19.5627 14.4258C19.8048 13.8164 19.9259 13.1406 19.9259 12.3984ZM29.7144 16.4531C30.23 16.4531 30.7066 16.3477 31.1441 16.1367C31.5816 15.9258 31.9409 15.6367 32.2222 15.2695C32.5034 14.8945 32.6636 14.4688 32.7027 13.9922H34.7652C34.7261 14.7422 34.4722 15.4414 34.0034 16.0898C33.5425 16.7305 32.937 17.25 32.187 17.6484C31.437 18.0391 30.6128 18.2344 29.7144 18.2344C28.7612 18.2344 27.9292 18.0664 27.2183 17.7305C26.5152 17.3945 25.9292 16.9336 25.4605 16.3477C24.9995 15.7617 24.6519 15.0898 24.4175 14.332C24.1909 13.5664 24.0777 12.7578 24.0777 11.9062V11.4141C24.0777 10.5625 24.1909 9.75781 24.4175 9C24.6519 8.23438 24.9995 7.55859 25.4605 6.97266C25.9292 6.38672 26.5152 5.92578 27.2183 5.58984C27.9292 5.25391 28.7612 5.08594 29.7144 5.08594C30.7066 5.08594 31.5737 5.28906 32.3159 5.69531C33.0581 6.09375 33.6402 6.64062 34.062 7.33594C34.4917 8.02344 34.7261 8.80469 34.7652 9.67969H32.7027C32.6636 9.15625 32.5152 8.68359 32.2573 8.26172C32.0073 7.83984 31.6636 7.50391 31.2261 7.25391C30.7964 6.99609 30.2925 6.86719 29.7144 6.86719C29.0503 6.86719 28.4917 7 28.0386 7.26562C27.5933 7.52344 27.2378 7.875 26.9722 8.32031C26.7144 8.75781 26.5269 9.24609 26.4097 9.78516C26.3003 10.3164 26.2456 10.8594 26.2456 11.4141V11.9062C26.2456 12.4609 26.3003 13.0078 26.4097 13.5469C26.5191 14.0859 26.7027 14.5742 26.9605 15.0117C27.2261 15.4492 27.5816 15.8008 28.0269 16.0664C28.48 16.3242 29.0425 16.4531 29.7144 16.4531ZM44.3192 15.832V9.30469C44.3192 8.80469 44.2177 8.37109 44.0145 8.00391C43.8192 7.62891 43.5223 7.33984 43.1239 7.13672C42.7255 6.93359 42.2333 6.83203 41.6473 6.83203C41.1005 6.83203 40.62 6.92578 40.2059 7.11328C39.7997 7.30078 39.4794 7.54688 39.245 7.85156C39.0184 8.15625 38.9052 8.48438 38.9052 8.83594H36.7372C36.7372 8.38281 36.8544 7.93359 37.0887 7.48828C37.3231 7.04297 37.6591 6.64062 38.0966 6.28125C38.5419 5.91406 39.0731 5.625 39.6903 5.41406C40.3153 5.19531 41.0106 5.08594 41.7762 5.08594C42.6981 5.08594 43.5106 5.24219 44.2137 5.55469C44.9247 5.86719 45.4794 6.33984 45.8778 6.97266C46.2841 7.59766 46.4872 8.38281 46.4872 9.32812V15.2344C46.4872 15.6562 46.5223 16.1055 46.5927 16.582C46.6708 17.0586 46.7841 17.4688 46.9325 17.8125V18H44.6708C44.5614 17.75 44.4755 17.418 44.413 17.0039C44.3505 16.582 44.3192 16.1914 44.3192 15.832ZM44.6942 10.3125L44.7177 11.8359H42.5262C41.9091 11.8359 41.3583 11.8867 40.8739 11.9883C40.3895 12.082 39.9833 12.2266 39.6552 12.4219C39.327 12.6172 39.077 12.8633 38.9052 13.1602C38.7333 13.4492 38.6473 13.7891 38.6473 14.1797C38.6473 14.5781 38.7372 14.9414 38.9169 15.2695C39.0966 15.5977 39.3661 15.8594 39.7255 16.0547C40.0927 16.2422 40.5419 16.3359 41.0731 16.3359C41.7372 16.3359 42.3231 16.1953 42.8309 15.9141C43.3387 15.6328 43.7411 15.2891 44.038 14.8828C44.3427 14.4766 44.5067 14.082 44.5302 13.6992L45.4559 14.7422C45.4012 15.0703 45.2528 15.4336 45.0106 15.832C44.7684 16.2305 44.4442 16.6133 44.038 16.9805C43.6395 17.3398 43.163 17.6406 42.6083 17.8828C42.0614 18.1172 41.4442 18.2344 40.7567 18.2344C39.8973 18.2344 39.1434 18.0664 38.495 17.7305C37.8544 17.3945 37.3544 16.9453 36.995 16.3828C36.6434 15.8125 36.4677 15.1758 36.4677 14.4727C36.4677 13.793 36.6005 13.1953 36.8661 12.6797C37.1317 12.1562 37.5145 11.7227 38.0145 11.3789C38.5145 11.0273 39.1161 10.7617 39.8192 10.582C40.5223 10.4023 41.3075 10.3125 42.1747 10.3125H44.6942ZM56.9202 14.6367C56.9202 14.3242 56.8498 14.0352 56.7092 13.7695C56.5764 13.4961 56.2991 13.25 55.8772 13.0312C55.4631 12.8047 54.8381 12.6094 54.0022 12.4453C53.2991 12.2969 52.6623 12.1211 52.092 11.918C51.5295 11.7148 51.0491 11.4688 50.6506 11.1797C50.26 10.8906 49.9592 10.5508 49.7483 10.1602C49.5373 9.76953 49.4319 9.3125 49.4319 8.78906C49.4319 8.28906 49.5412 7.81641 49.76 7.37109C49.9866 6.92578 50.303 6.53125 50.7092 6.1875C51.1233 5.84375 51.6194 5.57422 52.1975 5.37891C52.7756 5.18359 53.4202 5.08594 54.1311 5.08594C55.1467 5.08594 56.0139 5.26562 56.7327 5.625C57.4514 5.98438 58.0022 6.46484 58.385 7.06641C58.7678 7.66016 58.9592 8.32031 58.9592 9.04688H56.7912C56.7912 8.69531 56.6858 8.35547 56.4748 8.02734C56.2717 7.69141 55.9709 7.41406 55.5725 7.19531C55.1819 6.97656 54.7014 6.86719 54.1311 6.86719C53.5295 6.86719 53.0412 6.96094 52.6662 7.14844C52.2991 7.32812 52.0295 7.55859 51.8577 7.83984C51.6936 8.12109 51.6116 8.41797 51.6116 8.73047C51.6116 8.96484 51.6506 9.17578 51.7287 9.36328C51.8147 9.54297 51.9631 9.71094 52.1741 9.86719C52.385 10.0156 52.6819 10.1562 53.0647 10.2891C53.4475 10.4219 53.9358 10.5547 54.5295 10.6875C55.5686 10.9219 56.4241 11.2031 57.0959 11.5312C57.7678 11.8594 58.2678 12.2617 58.5959 12.7383C58.9241 13.2148 59.0881 13.793 59.0881 14.4727C59.0881 15.0273 58.9709 15.5352 58.7366 15.9961C58.51 16.457 58.178 16.8555 57.7405 17.1914C57.3108 17.5195 56.7952 17.7773 56.1936 17.9648C55.5998 18.1445 54.9319 18.2344 54.1897 18.2344C53.0725 18.2344 52.1272 18.0352 51.3537 17.6367C50.5803 17.2383 49.9944 16.7227 49.5959 16.0898C49.1975 15.457 48.9983 14.7891 48.9983 14.0859H51.178C51.2092 14.6797 51.3811 15.1523 51.6936 15.5039C52.0061 15.8477 52.3889 16.0938 52.842 16.2422C53.2952 16.3828 53.7444 16.4531 54.1897 16.4531C54.7834 16.4531 55.2795 16.375 55.678 16.2188C56.0842 16.0625 56.3928 15.8477 56.6037 15.5742C56.8147 15.3008 56.9202 14.9883 56.9202 14.6367ZM73.79 11.3086H69.2314V9.46875H73.79C74.6728 9.46875 75.3876 9.32812 75.9345 9.04688C76.4814 8.76562 76.8798 8.375 77.1298 7.875C77.3876 7.375 77.5166 6.80469 77.5166 6.16406C77.5166 5.57812 77.3876 5.02734 77.1298 4.51172C76.8798 3.99609 76.4814 3.58203 75.9345 3.26953C75.3876 2.94922 74.6728 2.78906 73.79 2.78906H69.7587V18H67.497V0.9375H73.79C75.0791 0.9375 76.1689 1.16016 77.0595 1.60547C77.9501 2.05078 78.6259 2.66797 79.0869 3.45703C79.5478 4.23828 79.7783 5.13281 79.7783 6.14062C79.7783 7.23438 79.5478 8.16797 79.0869 8.94141C78.6259 9.71484 77.9501 10.3047 77.0595 10.7109C76.1689 11.1094 75.0791 11.3086 73.79 11.3086ZM89.2855 15.832V9.30469C89.2855 8.80469 89.1839 8.37109 88.9808 8.00391C88.7855 7.62891 88.4886 7.33984 88.0902 7.13672C87.6917 6.93359 87.1995 6.83203 86.6136 6.83203C86.0667 6.83203 85.5863 6.92578 85.1722 7.11328C84.7659 7.30078 84.4456 7.54688 84.2113 7.85156C83.9847 8.15625 83.8714 8.48438 83.8714 8.83594H81.7034C81.7034 8.38281 81.8206 7.93359 82.055 7.48828C82.2894 7.04297 82.6253 6.64062 83.0628 6.28125C83.5081 5.91406 84.0394 5.625 84.6566 5.41406C85.2816 5.19531 85.9769 5.08594 86.7425 5.08594C87.6644 5.08594 88.4769 5.24219 89.18 5.55469C89.8909 5.86719 90.4456 6.33984 90.8441 6.97266C91.2503 7.59766 91.4534 8.38281 91.4534 9.32812V15.2344C91.4534 15.6562 91.4886 16.1055 91.5589 16.582C91.637 17.0586 91.7503 17.4688 91.8988 17.8125V18H89.637C89.5277 17.75 89.4417 17.418 89.3792 17.0039C89.3167 16.582 89.2855 16.1914 89.2855 15.832ZM89.6605 10.3125L89.6839 11.8359H87.4925C86.8753 11.8359 86.3245 11.8867 85.8402 11.9883C85.3558 12.082 84.9495 12.2266 84.6214 12.4219C84.2933 12.6172 84.0433 12.8633 83.8714 13.1602C83.6995 13.4492 83.6136 13.7891 83.6136 14.1797C83.6136 14.5781 83.7034 14.9414 83.8831 15.2695C84.0628 15.5977 84.3323 15.8594 84.6917 16.0547C85.0589 16.2422 85.5081 16.3359 86.0394 16.3359C86.7034 16.3359 87.2894 16.1953 87.7972 15.9141C88.305 15.6328 88.7073 15.2891 89.0042 14.8828C89.3089 14.4766 89.473 14.082 89.4964 13.6992L90.4222 14.7422C90.3675 15.0703 90.2191 15.4336 89.9769 15.832C89.7347 16.2305 89.4105 16.6133 89.0042 16.9805C88.6058 17.3398 88.1292 17.6406 87.5745 17.8828C87.0277 18.1172 86.4105 18.2344 85.723 18.2344C84.8636 18.2344 84.1097 18.0664 83.4613 17.7305C82.8206 17.3945 82.3206 16.9453 81.9613 16.3828C81.6097 15.8125 81.4339 15.1758 81.4339 14.4727C81.4339 13.793 81.5667 13.1953 81.8323 12.6797C82.098 12.1562 82.4808 11.7227 82.9808 11.3789C83.4808 11.0273 84.0823 10.7617 84.7855 10.582C85.4886 10.4023 86.2738 10.3125 87.1409 10.3125H89.6605ZM96.6716 7.75781V22.875H94.4919V5.32031H96.4841L96.6716 7.75781ZM105.215 11.5547V11.8008C105.215 12.7227 105.105 13.5781 104.886 14.3672C104.668 15.1484 104.347 15.8281 103.925 16.4062C103.511 16.9844 103 17.4336 102.39 17.7539C101.781 18.0742 101.082 18.2344 100.293 18.2344C99.488 18.2344 98.777 18.1016 98.1598 17.8359C97.5427 17.5703 97.0192 17.1836 96.5895 16.6758C96.1598 16.168 95.8161 15.5586 95.5583 14.8477C95.3083 14.1367 95.1364 13.3359 95.0427 12.4453V11.1328C95.1364 10.1953 95.3122 9.35547 95.57 8.61328C95.8278 7.87109 96.1677 7.23828 96.5895 6.71484C97.0192 6.18359 97.5387 5.78125 98.1481 5.50781C98.7575 5.22656 99.4606 5.08594 100.257 5.08594C101.054 5.08594 101.761 5.24219 102.379 5.55469C102.996 5.85938 103.515 6.29688 103.937 6.86719C104.359 7.4375 104.675 8.12109 104.886 8.91797C105.105 9.70703 105.215 10.5859 105.215 11.5547ZM103.035 11.8008V11.5547C103.035 10.9219 102.968 10.3281 102.836 9.77344C102.703 9.21094 102.496 8.71875 102.215 8.29688C101.941 7.86719 101.59 7.53125 101.16 7.28906C100.73 7.03906 100.218 6.91406 99.6247 6.91406C99.0778 6.91406 98.6012 7.00781 98.195 7.19531C97.7966 7.38281 97.4567 7.63672 97.1755 7.95703C96.8942 8.26953 96.6637 8.62891 96.4841 9.03516C96.3122 9.43359 96.1833 9.84766 96.0973 10.2773V13.3125C96.2536 13.8594 96.4723 14.375 96.7536 14.8594C97.0348 15.3359 97.4098 15.7227 97.8786 16.0195C98.3473 16.3086 98.9372 16.4531 99.6481 16.4531C100.234 16.4531 100.738 16.332 101.16 16.0898C101.59 15.8398 101.941 15.5 102.215 15.0703C102.496 14.6406 102.703 14.1484 102.836 13.5938C102.968 13.0312 103.035 12.4336 103.035 11.8008ZM109.976 5.32031V18H107.796V5.32031H109.976ZM107.632 1.95703C107.632 1.60547 107.737 1.30859 107.948 1.06641C108.167 0.824219 108.487 0.703125 108.909 0.703125C109.323 0.703125 109.64 0.824219 109.858 1.06641C110.085 1.30859 110.198 1.60547 110.198 1.95703C110.198 2.29297 110.085 2.58203 109.858 2.82422C109.64 3.05859 109.323 3.17578 108.909 3.17578C108.487 3.17578 108.167 3.05859 107.948 2.82422C107.737 2.58203 107.632 2.29297 107.632 1.95703ZM115.264 8.02734V18H113.096V5.32031H115.147L115.264 8.02734ZM114.748 11.1797L113.846 11.1445C113.854 10.2773 113.983 9.47656 114.233 8.74219C114.483 8 114.834 7.35547 115.287 6.80859C115.741 6.26172 116.28 5.83984 116.905 5.54297C117.537 5.23828 118.237 5.08594 119.002 5.08594C119.627 5.08594 120.19 5.17188 120.69 5.34375C121.19 5.50781 121.616 5.77344 121.967 6.14062C122.327 6.50781 122.6 6.98438 122.787 7.57031C122.975 8.14844 123.069 8.85547 123.069 9.69141V18H120.889V9.66797C120.889 9.00391 120.791 8.47266 120.596 8.07422C120.401 7.66797 120.116 7.375 119.741 7.19531C119.366 7.00781 118.905 6.91406 118.358 6.91406C117.819 6.91406 117.327 7.02734 116.881 7.25391C116.444 7.48047 116.065 7.79297 115.745 8.19141C115.432 8.58984 115.186 9.04688 115.006 9.5625C114.834 10.0703 114.748 10.6094 114.748 11.1797ZM128.357 5.32031V18H126.177V5.32031H128.357ZM126.013 1.95703C126.013 1.60547 126.119 1.30859 126.33 1.06641C126.549 0.824219 126.869 0.703125 127.291 0.703125C127.705 0.703125 128.021 0.824219 128.24 1.06641C128.467 1.30859 128.58 1.60547 128.58 1.95703C128.58 2.29297 128.467 2.58203 128.24 2.82422C128.021 3.05859 127.705 3.17578 127.291 3.17578C126.869 3.17578 126.549 3.05859 126.33 2.82422C126.119 2.58203 126.013 2.29297 126.013 1.95703Z" fill="black"/>
<path d="M138.946 10.5234L146.247 13.0781V16.4648L136.004 12.2109V9.76172L138.946 10.5234ZM146.247 8.44922L138.946 11.0508L136.004 11.7891V9.32812L146.247 5.07422V8.44922ZM155.742 0.9375L149.707 19.4648H147.047L153.082 0.9375H155.742ZM164.265 10.9922L156.952 8.44922V5.07422L167.218 9.32812V11.8008L164.265 10.9922ZM156.952 13.1133L164.277 10.5L167.218 9.76172V12.2227L156.952 16.4766V13.1133Z" fill="#6E57E0"/>
</svg>
