<svg width="190" height="30" viewBox="0 0 190 30" fill="none" xmlns="http://www.w3.org/2000/svg">
<path d="M3.02506 20.792H8.66506V23H0.28906V6.32H3.02506V20.792ZM22.5691 9.776V23H19.8331V21.44C19.4011 21.984 18.8331 22.416 18.1291 22.736C17.4411 23.04 16.7051 23.192 15.9211 23.192C14.8811 23.192 13.9451 22.976 13.1131 22.544C12.2971 22.112 11.6491 21.472 11.1691 20.624C10.7051 19.776 10.4731 18.752 10.4731 17.552V9.776H13.1851V17.144C13.1851 18.328 13.4811 19.24 14.0731 19.88C14.6651 20.504 15.4731 20.816 16.4971 20.816C17.5211 20.816 18.3291 20.504 18.9211 19.88C19.5291 19.24 19.8331 18.328 19.8331 17.144V9.776H22.5691ZM24.9071 16.376C24.9071 15.016 25.1791 13.824 25.7231 12.8C26.2831 11.76 27.0511 10.96 28.0271 10.4C29.0031 9.84 30.1231 9.56 31.3871 9.56C32.9871 9.56 34.3071 9.944 35.3471 10.712C36.4031 11.464 37.1151 12.544 37.4831 13.952H34.5311C34.2911 13.296 33.9071 12.784 33.3791 12.416C32.8511 12.048 32.1871 11.864 31.3871 11.864C30.2671 11.864 29.3711 12.264 28.6991 13.064C28.0431 13.848 27.7151 14.952 27.7151 16.376C27.7151 17.8 28.0431 18.912 28.6991 19.712C29.3711 20.512 30.2671 20.912 31.3871 20.912C32.9711 20.912 34.0191 20.216 34.5311 18.824H37.4831C37.0991 20.168 36.3791 21.24 35.3231 22.04C34.2671 22.824 32.9551 23.216 31.3871 23.216C30.1231 23.216 29.0031 22.936 28.0271 22.376C27.0511 21.8 26.2831 21 25.7231 19.976C25.1791 18.936 24.9071 17.736 24.9071 16.376ZM38.9377 16.328C38.9377 15 39.2097 13.824 39.7537 12.8C40.3137 11.776 41.0657 10.984 42.0097 10.424C42.9697 9.848 44.0257 9.56 45.1777 9.56C46.2177 9.56 47.1217 9.768 47.8897 10.184C48.6737 10.584 49.2977 11.088 49.7617 11.696V9.776H52.5217V23H49.7617V21.032C49.2977 21.656 48.6657 22.176 47.8657 22.592C47.0657 23.008 46.1537 23.216 45.1297 23.216C43.9937 23.216 42.9537 22.928 42.0097 22.352C41.0657 21.76 40.3137 20.944 39.7537 19.904C39.2097 18.848 38.9377 17.656 38.9377 16.328ZM49.7617 16.376C49.7617 15.464 49.5697 14.672 49.1857 14C48.8177 13.328 48.3297 12.816 47.7217 12.464C47.1137 12.112 46.4577 11.936 45.7537 11.936C45.0497 11.936 44.3937 12.112 43.7857 12.464C43.1777 12.8 42.6817 13.304 42.2977 13.976C41.9297 14.632 41.7457 15.416 41.7457 16.328C41.7457 17.24 41.9297 18.04 42.2977 18.728C42.6817 19.416 43.1777 19.944 43.7857 20.312C44.4097 20.664 45.0657 20.84 45.7537 20.84C46.4577 20.84 47.1137 20.664 47.7217 20.312C48.3297 19.96 48.8177 19.448 49.1857 18.776C49.5697 18.088 49.7617 17.288 49.7617 16.376ZM60.5553 23.216C59.5153 23.216 58.5793 23.032 57.7473 22.664C56.9313 22.28 56.2833 21.768 55.8033 21.128C55.3233 20.472 55.0673 19.744 55.0353 18.944H57.8673C57.9153 19.504 58.1793 19.976 58.6593 20.36C59.1553 20.728 59.7713 20.912 60.5073 20.912C61.2753 20.912 61.8673 20.768 62.2833 20.48C62.7153 20.176 62.9313 19.792 62.9313 19.328C62.9313 18.832 62.6913 18.464 62.2113 18.224C61.7473 17.984 61.0033 17.72 59.9793 17.432C58.9873 17.16 58.1793 16.896 57.5553 16.64C56.9313 16.384 56.3873 15.992 55.9233 15.464C55.4753 14.936 55.2513 14.24 55.2513 13.376C55.2513 12.672 55.4593 12.032 55.8753 11.456C56.2913 10.864 56.8833 10.4 57.6513 10.064C58.4353 9.728 59.3313 9.56 60.3393 9.56C61.8433 9.56 63.0513 9.944 63.9633 10.712C64.8913 11.464 65.3873 12.496 65.4513 13.808H62.7153C62.6673 13.216 62.4273 12.744 61.9953 12.392C61.5633 12.04 60.9793 11.864 60.2433 11.864C59.5233 11.864 58.9713 12 58.5873 12.272C58.2033 12.544 58.0113 12.904 58.0113 13.352C58.0113 13.704 58.1393 14 58.3953 14.24C58.6513 14.48 58.9633 14.672 59.3313 14.816C59.6993 14.944 60.2433 15.112 60.9633 15.32C61.9233 15.576 62.7073 15.84 63.3153 16.112C63.9393 16.368 64.4753 16.752 64.9233 17.264C65.3713 17.776 65.6033 18.456 65.6193 19.304C65.6193 20.056 65.4113 20.728 64.9953 21.32C64.5793 21.912 63.9873 22.376 63.2193 22.712C62.4673 23.048 61.5793 23.216 60.5553 23.216ZM85.754 11.288C85.754 12.136 85.554 12.936 85.154 13.688C84.754 14.44 84.114 15.056 83.234 15.536C82.354 16 81.226 16.232 79.85 16.232H76.826V23H74.09V6.32H79.85C81.13 6.32 82.21 6.544 83.09 6.992C83.986 7.424 84.65 8.016 85.082 8.768C85.53 9.52 85.754 10.36 85.754 11.288ZM79.85 14C80.89 14 81.666 13.768 82.178 13.304C82.69 12.824 82.946 12.152 82.946 11.288C82.946 9.464 81.914 8.552 79.85 8.552H76.826V14H79.85ZM87.0914 16.328C87.0914 15 87.3634 13.824 87.9074 12.8C88.4674 11.776 89.2194 10.984 90.1634 10.424C91.1234 9.848 92.1794 9.56 93.3314 9.56C94.3714 9.56 95.2754 9.768 96.0434 10.184C96.8274 10.584 97.4514 11.088 97.9154 11.696V9.776H100.675V23H97.9154V21.032C97.4514 21.656 96.8194 22.176 96.0194 22.592C95.2194 23.008 94.3074 23.216 93.2834 23.216C92.1474 23.216 91.1074 22.928 90.1634 22.352C89.2194 21.76 88.4674 20.944 87.9074 19.904C87.3634 18.848 87.0914 17.656 87.0914 16.328ZM97.9154 16.376C97.9154 15.464 97.7234 14.672 97.3394 14C96.9714 13.328 96.4834 12.816 95.8754 12.464C95.2674 12.112 94.6114 11.936 93.9074 11.936C93.2034 11.936 92.5474 12.112 91.9394 12.464C91.3314 12.8 90.8354 13.304 90.4514 13.976C90.0834 14.632 89.8994 15.416 89.8994 16.328C89.8994 17.24 90.0834 18.04 90.4514 18.728C90.8354 19.416 91.3314 19.944 91.9394 20.312C92.5634 20.664 93.2194 20.84 93.9074 20.84C94.6114 20.84 95.2674 20.664 95.8754 20.312C96.4834 19.96 96.9714 19.448 97.3394 18.776C97.7234 18.088 97.9154 17.288 97.9154 16.376ZM106.645 11.72C107.109 11.112 107.741 10.6 108.541 10.184C109.341 9.768 110.245 9.56 111.253 9.56C112.405 9.56 113.453 9.848 114.397 10.424C115.357 10.984 116.109 11.776 116.653 12.8C117.197 13.824 117.469 15 117.469 16.328C117.469 17.656 117.197 18.848 116.653 19.904C116.109 20.944 115.357 21.76 114.397 22.352C113.453 22.928 112.405 23.216 111.253 23.216C110.245 23.216 109.349 23.016 108.565 22.616C107.781 22.2 107.141 21.688 106.645 21.08V29.288H103.909V9.776H106.645V11.72ZM114.685 16.328C114.685 15.416 114.493 14.632 114.109 13.976C113.741 13.304 113.245 12.8 112.621 12.464C112.013 12.112 111.357 11.936 110.653 11.936C109.965 11.936 109.309 12.112 108.685 12.464C108.077 12.816 107.581 13.328 107.197 14C106.829 14.672 106.645 15.464 106.645 16.376C106.645 17.288 106.829 18.088 107.197 18.776C107.581 19.448 108.077 19.96 108.685 20.312C109.309 20.664 109.965 20.84 110.653 20.84C111.357 20.84 112.013 20.664 112.621 20.312C113.245 19.944 113.741 19.416 114.109 18.728C114.493 18.04 114.685 17.24 114.685 16.328ZM121.207 8.024C120.711 8.024 120.295 7.856 119.959 7.52C119.623 7.184 119.455 6.768 119.455 6.272C119.455 5.776 119.623 5.36 119.959 5.024C120.295 4.688 120.711 4.52 121.207 4.52C121.687 4.52 122.095 4.688 122.431 5.024C122.767 5.36 122.935 5.776 122.935 6.272C122.935 6.768 122.767 7.184 122.431 7.52C122.095 7.856 121.687 8.024 121.207 8.024ZM122.551 9.776V23H119.815V9.776H122.551ZM132.455 9.56C133.495 9.56 134.423 9.776 135.239 10.208C136.071 10.64 136.719 11.28 137.183 12.128C137.647 12.976 137.879 14 137.879 15.2V23H135.167V15.608C135.167 14.424 134.871 13.52 134.279 12.896C133.687 12.256 132.879 11.936 131.855 11.936C130.831 11.936 130.015 12.256 129.407 12.896C128.815 13.52 128.519 14.424 128.519 15.608V23H125.783V9.776H128.519V11.288C128.967 10.744 129.535 10.32 130.223 10.016C130.927 9.712 131.671 9.56 132.455 9.56ZM142.401 8.024C141.905 8.024 141.489 7.856 141.153 7.52C140.817 7.184 140.649 6.768 140.649 6.272C140.649 5.776 140.817 5.36 141.153 5.024C141.489 4.688 141.905 4.52 142.401 4.52C142.881 4.52 143.289 4.688 143.625 5.024C143.961 5.36 144.129 5.776 144.129 6.272C144.129 6.768 143.961 7.184 143.625 7.52C143.289 7.856 142.881 8.024 142.401 8.024ZM143.745 9.776V23H141.009V9.776H143.745Z" fill="black"/>
<path d="M158.923 19.784L153.403 14.336L158.923 8.888H162.379L156.835 14.336L162.379 19.784H158.923ZM176.067 0.343998L169.539 27.2H166.851L173.355 0.343998H176.067ZM180.043 8.888H183.499L189.019 14.336L183.499 19.784H180.043L185.587 14.336L180.043 8.888Z" fill="#6E57E0"/>
</svg>
